<?xml version="1.0" encoding="utf-8"?>
<!-- Generator: Adobe Illustrator 15.0.0, SVG Export Plug-In . SVG Version: 6.00 Build 0)  -->
<!DOCTYPE svg PUBLIC "-//W3C//DTD SVG 1.1//EN" "http://www.w3.org/Graphics/SVG/1.1/DTD/svg11.dtd">
<svg version="1.1" id="Layer_1" xmlns="http://www.w3.org/2000/svg" xmlns:xlink="http://www.w3.org/1999/xlink" x="0px" y="0px"
	 width="70px" height="70px" viewBox="0 0 70 70" enable-background="new 0 0 70 70" xml:space="preserve">
<path fill-rule="evenodd" clip-rule="evenodd" fill="#FFFFFF" d="M56.941,37.64h-3.998c-1.105,0-2-0.895-2-1.999s0.895-2,2-2h3.998
	c1.105,0,2,0.896,2,2S58.047,37.64,56.941,37.64z M49.086,24.328c-0.781,0.781-2.049,0.781-2.828,0
	c-0.781-0.781-0.781-2.047,0-2.828l2.828-2.828c0.779-0.781,2.047-0.781,2.828,0c0.779,0.781,0.779,2.047,0,2.828L49.086,24.328z
	 M34.945,47.639c-6.627,0-11.999-5.372-11.999-11.998c0-6.627,5.372-11.999,11.999-11.999c6.627,0,11.999,5.372,11.999,11.999
	C46.943,42.267,41.572,47.639,34.945,47.639z M34.945,27.642c-4.418,0-8,3.581-8,7.999c0,4.417,3.582,7.999,8,7.999
	c4.418,0,7.999-3.582,7.999-7.999C42.943,31.223,39.363,27.642,34.945,27.642z M34.945,19.643c-1.104,0-2-0.896-2-2v-3.999
	c0-1.104,0.896-2,2-2c1.104,0,2,0.896,2,2v3.999C36.945,18.747,36.049,19.643,34.945,19.643z M20.804,24.328L17.976,21.5
	c-0.781-0.781-0.781-2.047,0-2.828s2.047-0.781,2.828,0l2.828,2.828c0.781,0.781,0.781,2.047,0,2.828S21.585,25.109,20.804,24.328z
	 M18.947,35.641c0,1.104-0.896,1.999-2,1.999h-4c-1.104,0-1.999-0.895-1.999-1.999s0.896-2,1.999-2h4
	C18.051,33.641,18.947,34.536,18.947,35.641z M20.804,46.952c0.781-0.78,2.047-0.78,2.828,0c0.781,0.781,0.781,2.048,0,2.828
	l-2.828,2.828c-0.781,0.781-2.047,0.781-2.828,0c-0.781-0.78-0.781-2.047,0-2.828L20.804,46.952z M34.945,51.639
	c1.104,0,2,0.895,2,1.999v4c0,1.104-0.896,2-2,2c-1.104,0-2-0.896-2-2v-4C32.945,52.533,33.84,51.639,34.945,51.639z M49.086,46.952
	l2.828,2.828c0.779,0.781,0.779,2.048,0,2.828c-0.781,0.781-2.049,0.781-2.828,0l-2.828-2.828c-0.781-0.78-0.781-2.047,0-2.828
	C47.037,46.172,48.305,46.172,49.086,46.952z"/>
</svg>
