<?xml version="1.0" encoding="utf-8"?>
<!-- Generator: Adobe Illustrator 15.0.0, SVG Export Plug-In . SVG Version: 6.00 Build 0)  -->
<!DOCTYPE svg PUBLIC "-//W3C//DTD SVG 1.1//EN" "http://www.w3.org/Graphics/SVG/1.1/DTD/svg11.dtd">
<svg version="1.1" id="Layer_1" xmlns="http://www.w3.org/2000/svg" xmlns:xlink="http://www.w3.org/1999/xlink" x="0px" y="0px"
	 width="70px" height="70px" viewBox="0 0 70 70" enable-background="new 0 0 70 70" xml:space="preserve">
<path fill-rule="evenodd" clip-rule="evenodd" fill="#FFFFFF" d="M59.941,37.641h-4c-1.104,0-2-0.895-2-2
	c0-1.104,0.896-1.999,2-1.999h4c1.104,0,2,0.896,2,1.999C61.941,36.746,61.045,37.641,59.941,37.641z M52.084,24.329
	c-0.781,0.781-2.047,0.781-2.828,0c-0.781-0.78-0.781-2.047,0-2.827l2.828-2.828c0.781-0.781,2.047-0.781,2.828,0
	c0.781,0.78,0.781,2.047,0,2.828L52.084,24.329z M49.137,39.936L49.137,39.936c1.749,2.086,2.806,4.77,2.806,7.705
	c0,6.625-5.372,11.998-11.999,11.998c-2.775,0-12.801,0-15.998,0c-8.835,0-15.998-7.162-15.998-15.998
	c0-8.835,7.163-15.998,15.998-15.998c1.572,0,3.09,0.232,4.523,0.654c2.195-2.827,5.618-4.654,9.475-4.654
	c6.627,0,11.999,5.372,11.999,11.998C49.942,37.156,49.649,38.602,49.137,39.936z M11.947,43.641
	c0,6.627,5.371,11.998,11.998,11.998c3.616,0,12.979,0,15.998,0c4.418,0,7.999-3.582,7.999-7.998c0-4.418-3.581-8-7.999-8
	c-1.6,0-3.083,0.482-4.333,1.291c-1.231-5.316-5.974-9.29-11.665-9.29C17.318,31.642,11.947,37.014,11.947,43.641z M37.943,27.643
	c-2.212,0-4.215,0.898-5.662,2.35c2.34,1.436,4.285,3.452,5.629,5.854c0.664-0.113,1.337-0.205,2.033-0.205
	c2.125,0,4.119,0.558,5.85,1.527l0,0c0.096-0.494,0.15-1.004,0.15-1.527C45.943,31.224,42.361,27.643,37.943,27.643z M37.943,19.643
	c-1.104,0-1.999-0.895-1.999-1.999v-3.999c0-1.105,0.896-2,1.999-2c1.105,0,2,0.895,2,2v3.999
	C39.943,18.749,39.049,19.643,37.943,19.643z M23.803,24.329l-2.827-2.827c-0.781-0.781-0.781-2.048,0-2.828
	c0.78-0.781,2.047-0.781,2.827,0l2.828,2.828c0.781,0.78,0.781,2.047,0,2.827C25.851,25.11,24.584,25.11,23.803,24.329z"/>
</svg>
