<?xml version="1.0" encoding="utf-8"?>
<!-- Generator: Adobe Illustrator 15.0.0, SVG Export Plug-In . SVG Version: 6.00 Build 0)  -->
<!DOCTYPE svg PUBLIC "-//W3C//DTD SVG 1.1//EN" "http://www.w3.org/Graphics/SVG/1.1/DTD/svg11.dtd">
<svg version="1.1" id="Layer_1" xmlns="http://www.w3.org/2000/svg" xmlns:xlink="http://www.w3.org/1999/xlink" x="0px" y="0px"
	 width="70px" height="70px" viewBox="0 0 70 70" enable-background="new 0 0 70 70" xml:space="preserve">
<path fill-rule="evenodd" clip-rule="evenodd" fill="#FFFFFF" d="M54.763,35.757L54.763,35.757c1.368,1.95,2.179,4.319,2.179,6.883
	c0,6.625-5.371,11.998-11.998,11.998c-2.775,0-12.801,0-15.998,0c-8.836,0-15.998-7.162-15.998-15.998
	c0-8.835,7.162-15.998,15.998-15.998c2.002,0,3.914,0.375,5.68,1.047l0,0c1.635-4.682,6.078-8.047,11.318-8.047
	c0.755,0,1.491,0.078,2.207,0.212c-0.131,0.575-0.207,1.173-0.207,1.788c0,4.418,3.581,7.999,7.998,7.999
	c0.616,0,1.213-0.076,1.789-0.208c0.133,0.717,0.211,1.453,0.211,2.208C57.941,30.776,56.73,33.621,54.763,35.757z M16.947,38.641
	c0,6.627,5.371,11.998,11.998,11.998c3.616,0,12.979,0,15.998,0c4.418,0,7.999-3.582,7.999-7.998c0-4.418-3.581-8-7.999-8
	c-1.6,0-3.083,0.481-4.334,1.291c-1.231-5.316-5.973-9.29-11.664-9.29C22.318,26.642,16.947,32.014,16.947,38.641z M36.496,24.545
	c0.001,0,0.002,0,0.002,0S36.497,24.545,36.496,24.545z M44.155,19.85c-2.9,0.664-5.175,2.91-5.925,5.775l0,0
	c1.918,1.372,3.523,3.152,4.68,5.221c0.664-0.113,1.337-0.205,2.033-0.205c2.618,0,5.033,0.849,7.005,2.271l0,0
	c0.858-0.979,1.485-2.168,1.786-3.482C48.881,28.526,45.059,24.706,44.155,19.85z"/>
</svg>
