<?xml version="1.0" encoding="utf-8"?>
<!-- Generator: Adobe Illustrator 15.0.0, SVG Export Plug-In . SVG Version: 6.00 Build 0)  -->
<!DOCTYPE svg PUBLIC "-//W3C//DTD SVG 1.1//EN" "http://www.w3.org/Graphics/SVG/1.1/DTD/svg11.dtd">
<svg version="1.1" id="Layer_1" xmlns="http://www.w3.org/2000/svg" xmlns:xlink="http://www.w3.org/1999/xlink" x="0px" y="0px"
	 width="70px" height="70px" viewBox="0 0 70 70" enable-background="new 0 0 70 70" xml:space="preserve">
<path fill-rule="evenodd" clip-rule="evenodd" fill="#FFFFFF" d="M44.943,45.639c-0.28,0-0.649,0-1.062,0l3.585-4.412
	c3.181-1.057,5.477-4.053,5.477-7.587c0-4.418-3.581-7.998-7.999-7.998c-1.601,0-3.083,0.48-4.333,1.29
	c-1.232-5.316-5.974-9.29-11.665-9.29c-6.626,0-11.998,5.372-11.998,11.999c0,5.446,3.632,10.038,8.604,11.504l-1.349,3.777
	c-6.52-2.021-11.255-8.098-11.255-15.282c0-8.835,7.163-15.998,15.998-15.998c6.004,0,11.229,3.312,13.965,8.204
	c0.664-0.114,1.337-0.205,2.033-0.205c6.627,0,11.999,5.371,11.999,11.998C56.942,40.266,51.57,45.639,44.943,45.639z
	 M32.945,31.639h9.998l-5.999,10h6.999L30.945,57.637l3.6-11.998h-6.6L32.945,31.639z"/>
<g>
	<g>
		<path fill-rule="evenodd" clip-rule="evenodd" fill="#FFFFFF" d="M44.943,21.641c-0.696,0-1.369,0.092-2.033,0.205
			c-2.736-4.892-7.961-8.203-13.965-8.203c-8.835,0-15.998,7.162-15.998,15.998c0,5.992,3.3,11.207,8.177,13.947
			c0.276-1.262,0.892-2.465,1.873-3.445l0.057-0.057c-3.644-2.061-6.106-5.962-6.106-10.445c0-6.627,5.372-11.999,11.998-11.999
			c5.691,0,10.433,3.974,11.665,9.29c1.25-0.81,2.733-1.291,4.333-1.291c4.418,0,7.999,3.581,7.999,7.999
			c0,3.444-2.182,6.372-5.235,7.499c0.788,1.146,1.194,2.471,1.222,3.807c4.665-1.645,8.014-6.078,8.014-11.305
			C56.942,27.014,51.57,21.641,44.943,21.641z M27.945,40.85l-2.121,2.121c-1.171,1.172-1.171,3.07,0,4.242
			c1.172,1.172,3.071,1.172,4.242,0c1.172-1.172,1.172-3.07,0-4.242L27.945,40.85z M41.944,40.85l-2.121,2.121
			c-1.172,1.172-1.172,3.07,0,4.242c1.171,1.172,3.07,1.172,4.242,0c1.171-1.172,1.171-3.07,0-4.242L41.944,40.85z M34.945,48.848
			l-2.121,2.121c-1.172,1.172-1.172,3.072,0,4.242c1.171,1.172,3.07,1.172,4.241,0c1.172-1.17,1.172-3.07,0-4.242L34.945,48.848z"/>
	</g>
</g>
</svg>
