<?xml version="1.0" encoding="utf-8"?>
<!-- Generator: Adobe Illustrator 15.0.0, SVG Export Plug-In . SVG Version: 6.00 Build 0)  -->
<!DOCTYPE svg PUBLIC "-//W3C//DTD SVG 1.1//EN" "http://www.w3.org/Graphics/SVG/1.1/DTD/svg11.dtd">
<svg version="1.1" id="Layer_1" xmlns="http://www.w3.org/2000/svg" xmlns:xlink="http://www.w3.org/1999/xlink" x="0px" y="0px"
	 width="70px" height="70px" viewBox="0 0 70 70" enable-background="new 0 0 70 70" xml:space="preserve">
<path fill-rule="evenodd" clip-rule="evenodd" fill="#FFFFFF" d="M59.941,31.642h-4c-1.104,0-2-0.895-2-2c0-1.104,0.896-2,2-2h4
	c1.104,0,2,0.896,2,2C61.941,30.747,61.046,31.642,59.941,31.642z M52.084,18.329c-0.781,0.781-2.047,0.781-2.828,0
	c-0.781-0.78-0.781-2.047,0-2.828l2.828-2.828c0.781-0.78,2.047-0.78,2.828,0c0.781,0.781,0.781,2.048,0,2.828L52.084,18.329z
	 M49.137,33.937L49.137,33.937c1.75,2.084,2.806,4.77,2.806,7.704c0,5.222-3.343,9.651-7.999,11.301v-4.381
	c2.389-1.384,4-3.961,4-6.92c0-4.418-3.582-7.999-8-7.999c-1.6,0-3.083,0.48-4.333,1.291c-1.231-5.317-5.974-9.29-11.665-9.29
	c-6.626,0-11.998,5.372-11.998,11.998c0,3.55,1.551,6.729,4,8.925v4.916c-4.777-2.768-8-7.922-8-13.841
	c0-8.835,7.163-15.997,15.998-15.997c1.572,0,3.09,0.231,4.524,0.654c2.194-2.827,5.617-4.654,9.474-4.654
	c6.627,0,11.999,5.371,11.999,11.998C49.942,31.157,49.65,32.602,49.137,33.937z M37.943,21.644c-2.211,0-4.214,0.898-5.662,2.35
	c2.341,1.435,4.286,3.452,5.629,5.854c0.664-0.113,1.338-0.205,2.033-0.205c2.126,0,4.119,0.559,5.85,1.527l0,0
	c0.096-0.494,0.15-1.004,0.15-1.527C45.943,25.224,42.361,21.644,37.943,21.644z M37.943,13.644c-1.104,0-1.999-0.895-1.999-2V7.645
	c0-1.104,0.896-1.999,1.999-1.999c1.105,0,2,0.895,2,1.999v3.999C39.943,12.749,39.049,13.644,37.943,13.644z M23.804,18.329
	l-2.828-2.828c-0.78-0.78-0.78-2.047,0-2.828c0.78-0.78,2.048-0.78,2.828,0l2.828,2.828c0.78,0.781,0.78,2.048,0,2.828
	C25.851,19.11,24.584,19.11,23.804,18.329z M21.945,41.641c1.105,0,2,0.896,2,1.999v15.998c0,1.105-0.895,2-2,2
	c-1.104,0-1.999-0.895-1.999-2V43.64C19.946,42.536,20.842,41.641,21.945,41.641z M29.945,45.64c1.104,0,2,0.896,2,2v15.998
	c0,1.104-0.896,2-2,2c-1.104,0-2-0.896-2-2V47.64C27.945,46.535,28.841,45.64,29.945,45.64z M37.943,41.641c1.105,0,2,0.896,2,1.999
	v15.998c0,1.105-0.895,2-2,2c-1.104,0-1.999-0.895-1.999-2V43.64C35.944,42.536,36.84,41.641,37.943,41.641z"/>
</svg>
