<?xml version="1.0" encoding="utf-8"?>
<!-- Generator: Adobe Illustrator 15.0.0, SVG Export Plug-In . SVG Version: 6.00 Build 0)  -->
<!DOCTYPE svg PUBLIC "-//W3C//DTD SVG 1.1//EN" "http://www.w3.org/Graphics/SVG/1.1/DTD/svg11.dtd">
<svg version="1.1" id="Layer_1" xmlns="http://www.w3.org/2000/svg" xmlns:xlink="http://www.w3.org/1999/xlink" x="0px" y="0px"
	 width="70px" height="70px" viewBox="0 0 70 70" enable-background="new 0 0 70 70" xml:space="preserve">
<g>
	<g>
		<path fill-rule="evenodd" clip-rule="evenodd" fill="#FFFFFF" d="M34.945,40.64c-1.105,0-2,0.896-2,2v15.998c0,1.104,0.895,2,2,2
			c1.104,0,2-0.896,2-2V42.64C36.945,41.535,36.049,40.64,34.945,40.64z M26.945,36.641c-1.104,0-1.999,0.896-1.999,1.999v15.998
			c0,1.105,0.896,2,1.999,2c1.105,0,2-0.895,2-2V38.64C28.945,37.536,28.051,36.641,26.945,36.641z M42.943,36.641
			c-1.104,0-1.999,0.896-1.999,1.999v15.998c0,1.105,0.896,2,1.999,2c1.105,0,2-0.895,2-2V38.64
			C44.943,37.536,44.049,36.641,42.943,36.641z M57.941,21.642c0-0.754-0.078-1.49-0.211-2.207
			c-0.576,0.132-1.173,0.208-1.788,0.208c-4.418,0-7.999-3.581-7.999-7.999c0-0.615,0.076-1.213,0.207-1.788
			c-0.716-0.134-1.451-0.212-2.207-0.212c-5.24,0-9.684,3.365-11.318,8.047c-1.766-0.672-3.678-1.047-5.68-1.047
			c-8.835,0-15.998,7.162-15.998,15.997c0,5.919,3.223,11.073,8,13.841v-4.916c-2.45-2.196-4-5.375-4-8.925
			c0-6.626,5.371-11.998,11.998-11.998c5.691,0,10.434,3.973,11.665,9.29c1.25-0.811,2.733-1.291,4.333-1.291
			c4.418,0,7.999,3.581,7.999,7.999c0,2.959-1.61,5.536-3.999,6.92v4.381c4.656-1.649,7.999-6.079,7.999-11.301
			c0-2.563-0.811-4.934-2.18-6.883C56.73,27.62,57.941,24.776,57.941,21.642z M51.949,26.913c-1.973-1.424-4.388-2.271-7.006-2.271
			c-0.696,0-1.369,0.092-2.033,0.205c-1.156-2.068-2.762-3.849-4.679-5.221c0.75-2.865,3.024-5.111,5.924-5.775
			c0.904,4.855,4.726,8.676,9.579,9.58C53.434,24.745,52.807,25.933,51.949,26.913z"/>
	</g>
</g>
</svg>
