<?xml version="1.0" encoding="utf-8"?>
<!-- Generator: Adobe Illustrator 15.0.0, SVG Export Plug-In . SVG Version: 6.00 Build 0)  -->
<!DOCTYPE svg PUBLIC "-//W3C//DTD SVG 1.1//EN" "http://www.w3.org/Graphics/SVG/1.1/DTD/svg11.dtd">
<svg version="1.1" id="Layer_1" xmlns="http://www.w3.org/2000/svg" xmlns:xlink="http://www.w3.org/1999/xlink" x="0px" y="0px"
	 width="70px" height="70px" viewBox="0 0 70 70" enable-background="new 0 0 70 70" xml:space="preserve">
<path fill-rule="evenodd" clip-rule="evenodd" fill="#FFFFFF" d="M59.94,34.641h-4c-1.104,0-1.999-0.896-1.999-2s0.895-2,1.999-2h4
	c1.104,0,2,0.896,2,2S61.045,34.641,59.94,34.641z M52.084,21.329c-0.781,0.781-2.048,0.781-2.828,0
	c-0.781-0.781-0.781-2.047,0-2.828l2.828-2.828c0.78-0.781,2.047-0.781,2.827,0c0.781,0.781,0.781,2.047,0,2.828L52.084,21.329z
	 M49.136,36.936L49.136,36.936c1.749,2.084,2.806,4.77,2.806,7.703c0,5.945-4.326,10.865-9.999,11.82v-4.082
	c3.448-0.891,5.999-4.012,5.999-7.738c0-4.416-3.581-7.998-7.998-7.998c-1.601,0-3.084,0.48-4.334,1.291
	c-1.231-5.317-5.974-9.291-11.665-9.291c-6.626,0-11.998,5.373-11.998,12c0,4.438,2.416,8.305,5.999,10.379v4.445
	c-5.86-2.375-9.998-8.113-9.998-14.824c0-8.835,7.162-15.999,15.997-15.999c1.573,0,3.09,0.232,4.524,0.655
	c2.195-2.828,5.617-4.654,9.475-4.654c6.626,0,11.998,5.371,11.998,11.998C49.941,34.157,49.648,35.6,49.136,36.936z M37.943,24.642
	c-2.213,0-4.215,0.898-5.663,2.351c2.341,1.435,4.286,3.452,5.63,5.854c0.663-0.113,1.336-0.205,2.033-0.205
	c2.125,0,4.118,0.559,5.85,1.527l0,0c0.096-0.494,0.149-1.004,0.149-1.527C45.942,28.223,42.36,24.642,37.943,24.642z
	 M37.943,16.643c-1.104,0-2-0.895-2-2v-3.999c0-1.104,0.896-2,2-2s2,0.896,2,2v3.999C39.943,15.749,39.048,16.643,37.943,16.643z
	 M23.803,21.329L20.975,18.5c-0.781-0.781-0.781-2.047,0-2.828s2.047-0.781,2.828,0l2.828,2.828c0.781,0.781,0.781,2.047,0,2.828
	S24.584,22.11,23.803,21.329z M23.017,50.639c0.553-0.957,1.775-1.283,2.731-0.732l2.196,1.268v-2.535c0-1.104,0.896-2,2-2
	s1.999,0.896,1.999,2v2.535l2.196-1.268c0.956-0.551,2.18-0.225,2.731,0.732c0.553,0.957,0.225,2.18-0.731,2.732l-2.196,1.268
	l2.196,1.268c0.956,0.553,1.284,1.775,0.731,2.732c-0.552,0.955-1.775,1.283-2.731,0.73l-2.196-1.268v2.535c0,1.105-0.895,2-1.999,2
	s-2-0.895-2-2v-2.535l-2.196,1.268c-0.956,0.553-2.179,0.225-2.731-0.73c-0.552-0.957-0.225-2.18,0.732-2.732l2.195-1.268
	l-2.195-1.268C22.792,52.818,22.465,51.596,23.017,50.639z M29.944,56.639c1.104,0,1.999-0.896,1.999-2c0-1.105-0.895-2-1.999-2
	s-2,0.895-2,2C27.944,55.742,28.84,56.639,29.944,56.639z"/>
</svg>
