<?xml version="1.0" encoding="utf-8"?>
<!-- Generator: Adobe Illustrator 15.0.0, SVG Export Plug-In . SVG Version: 6.00 Build 0)  -->
<!DOCTYPE svg PUBLIC "-//W3C//DTD SVG 1.1//EN" "http://www.w3.org/Graphics/SVG/1.1/DTD/svg11.dtd">
<svg version="1.1" id="Layer_1" xmlns="http://www.w3.org/2000/svg" xmlns:xlink="http://www.w3.org/1999/xlink" x="0px" y="0px"
	 width="70px" height="70px" viewBox="0 0 70 70" enable-background="new 0 0 70 70" xml:space="preserve">
<path fill-rule="evenodd" clip-rule="evenodd" fill="#FFFFFF" d="M59.941,38.641h-4c-1.104,0-2-0.896-2-2c0-1.104,0.896-2,2-2h4
	c1.104,0,2,0.896,2,2C61.941,37.744,61.045,38.641,59.941,38.641z M52.084,25.328c-0.781,0.781-2.047,0.781-2.828,0
	s-0.781-2.047,0-2.828l2.828-2.828c0.781-0.781,2.047-0.781,2.828,0s0.781,2.047,0,2.828L52.084,25.328z M49.763,38.641H9.121
	c0.281-0.693,0.613-1.359,0.984-2h27.672c0.041,0.07,0.094,0.134,0.133,0.205c0.664-0.114,1.337-0.205,2.033-0.205
	c2.125,0,4.119,0.559,5.85,1.527l0,0c0.096-0.494,0.15-1.006,0.15-1.527c0-4.418-3.582-7.999-8-7.999
	c-2.025,0-3.869,0.759-5.277,1.999H16.207c2.294-1.271,4.93-1.999,7.738-1.999c1.572,0,3.09,0.232,4.523,0.655
	c2.195-2.828,5.618-4.654,9.475-4.654c6.627,0,11.999,5.371,11.999,11.998C49.942,37.324,49.875,37.99,49.763,38.641z
	 M37.943,20.643c-1.104,0-1.999-0.896-1.999-2v-3.999c0-1.104,0.896-2,1.999-2c1.105,0,2,0.896,2,2v3.999
	C39.943,19.747,39.049,20.643,37.943,20.643z M23.803,25.328L20.976,22.5c-0.781-0.781-0.781-2.047,0-2.828
	c0.78-0.781,2.047-0.781,2.827,0l2.828,2.828c0.781,0.781,0.781,2.047,0,2.828C25.851,26.109,24.584,26.109,23.803,25.328z
	 M13.389,32.641H34.47c0.696,0.611,1.337,1.278,1.918,2H11.469C12.048,33.918,12.693,33.253,13.389,32.641z M51.77,46.639H8.086
	c-0.082-0.656-0.139-1.32-0.139-2H51.25C51.479,45.283,51.654,45.951,51.77,46.639z M13.389,56.639h35.48
	c-0.68,0.758-1.447,1.434-2.299,1.998H16.207C15.191,58.076,14.252,57.398,13.389,56.639z M10.105,52.639h41.139
	c-0.246,0.699-0.555,1.367-0.92,2H11.469C10.964,54.01,10.512,53.34,10.105,52.639z M8.086,42.639
	c0.085-0.682,0.218-1.346,0.387-1.998h40.764c-0.035,0.098-0.062,0.197-0.1,0.295l0,0c0.445,0.529,0.845,1.102,1.194,1.703H8.086z
	 M8.473,48.639h43.47c0,0.684-0.071,1.348-0.181,2H9.121C8.859,49.992,8.648,49.322,8.473,48.639z"/>
</svg>
