<?xml version="1.0" encoding="utf-8"?>
<!-- Generator: Adobe Illustrator 15.0.0, SVG Export Plug-In . SVG Version: 6.00 Build 0)  -->
<!DOCTYPE svg PUBLIC "-//W3C//DTD SVG 1.1//EN" "http://www.w3.org/Graphics/SVG/1.1/DTD/svg11.dtd">
<svg version="1.1" id="Layer_1" xmlns="http://www.w3.org/2000/svg" xmlns:xlink="http://www.w3.org/1999/xlink" x="0px" y="0px"
	 width="70px" height="70px" viewBox="0 0 70 70" enable-background="new 0 0 70 70" xml:space="preserve">
<path fill-rule="evenodd" clip-rule="evenodd" fill="#FFFFFF" d="M52.158,33.641c0.746-0.927,1.303-2.013,1.576-3.211
	c-4.854-0.904-8.676-4.726-9.579-9.58c-2.559,0.585-4.626,2.404-5.594,4.791H21.207c2.293-1.271,4.93-1.999,7.738-1.999
	c2.002,0,3.914,0.376,5.68,1.048c1.635-4.683,6.078-8.047,11.318-8.047c0.755,0,1.491,0.078,2.207,0.211
	c-0.131,0.576-0.207,1.173-0.207,1.789c0,4.418,3.581,7.998,7.998,7.998c0.616,0,1.213-0.076,1.789-0.207
	c0.133,0.717,0.211,1.452,0.211,2.207c0,1.789-0.405,3.478-1.109,5H52.158z M56.941,43.639c0,0.684-0.07,1.348-0.18,2H14.121
	c-0.262-0.646-0.473-1.315-0.649-2H56.941z M56.244,47.639c-0.247,0.699-0.555,1.367-0.92,2H16.468
	c-0.505-0.629-0.956-1.299-1.362-2H56.244z M53.869,51.639c-0.68,0.758-1.447,1.434-2.299,1.999H21.207
	c-1.016-0.562-1.955-1.239-2.818-1.999H53.869z M13.086,41.639c-0.082-0.656-0.139-1.32-0.139-1.999h43.284
	c0.229,0.646,0.417,1.31,0.534,1.999H13.086z M54.763,36.756c0.196,0.281,0.354,0.588,0.527,0.884H13.086
	c0.085-0.682,0.218-1.347,0.386-1.999h42.19C55.381,36.027,55.086,36.405,54.763,36.756z M51.541,33.641h-37.42
	c0.281-0.693,0.613-1.359,0.984-2H42.78c0.04,0.07,0.091,0.134,0.13,0.205c0.664-0.114,1.337-0.205,2.033-0.205
	C47.387,31.641,49.646,32.386,51.541,33.641z M18.389,27.641H39.5c0.689,0.607,1.314,1.283,1.891,2H16.468
	C17.048,28.918,17.693,28.253,18.389,27.641z"/>
</svg>
