<?xml version="1.0" encoding="utf-8"?>
<!-- Generator: Adobe Illustrator 15.0.0, SVG Export Plug-In . SVG Version: 6.00 Build 0)  -->
<!DOCTYPE svg PUBLIC "-//W3C//DTD SVG 1.1//EN" "http://www.w3.org/Graphics/SVG/1.1/DTD/svg11.dtd">
<svg version="1.1" id="Layer_1" xmlns="http://www.w3.org/2000/svg" xmlns:xlink="http://www.w3.org/1999/xlink" x="0px" y="0px"
	 width="70px" height="70px" viewBox="0 0 70 70" enable-background="new 0 0 70 70" xml:space="preserve">
<path fill-rule="evenodd" clip-rule="evenodd" fill="#FFFFFF" d="M48.442,31.141c0-2.209-1.791-4-4-4s-4,1.791-4,4v3.999h8v4h-8
	v7.999h-3.999V39.14v-4v-3.999c0-4.418,3.581-7.999,7.999-7.999s7.999,3.581,7.999,7.999H48.442z M25.444,37.14
	c-3.865,0-6.998-3.134-6.998-6.999s3.133-6.999,6.998-6.999s7,3.134,7,6.999S29.31,37.14,25.444,37.14z M25.444,27.141
	c-1.656,0-2.999,1.344-2.999,3s1.343,3,2.999,3c1.657,0,3-1.344,3-3S27.102,27.141,25.444,27.141z"/>
</svg>
