<?xml version="1.0" encoding="utf-8"?>
<!-- Generator: Adobe Illustrator 15.0.0, SVG Export Plug-In . SVG Version: 6.00 Build 0)  -->
<!DOCTYPE svg PUBLIC "-//W3C//DTD SVG 1.1//EN" "http://www.w3.org/Graphics/SVG/1.1/DTD/svg11.dtd">
<svg version="1.1" id="Layer_1" xmlns="http://www.w3.org/2000/svg" xmlns:xlink="http://www.w3.org/1999/xlink" x="0px" y="0px"
	 width="148px" height="148px" viewBox="0 0 148 148" enable-background="new 0 0 148 148" xml:space="preserve">
<g>
	<g>
		<path fill="#FFFFFF" d="M125.814,114.417L97.495,86.098c4.541-6.85,6.985-14.88,6.985-23.286c0-11.29-4.396-21.901-12.38-29.884
			c-7.979-7.979-18.589-12.375-29.875-12.375h-0.005c-23.299,0-42.259,18.955-42.259,42.259c0,23.3,18.955,42.259,42.259,42.259
			c8.406,0,16.437-2.444,23.287-6.984l28.319,28.319c1.651,1.646,4.35,1.646,5.996,0l5.991-5.996
			C127.462,118.762,127.467,116.069,125.814,114.417z M31.262,62.812c0-17.072,13.891-30.96,30.959-30.96
			c8.271,0,16.044,3.22,21.892,9.068s9.064,13.622,9.064,21.892c0,8.266-3.217,16.044-9.064,21.893
			c-5.848,5.843-13.621,9.063-21.892,9.063C45.148,93.768,31.262,79.88,31.262,62.812z"/>
	</g>
</g>
</svg>
