<?xml version="1.0" encoding="utf-8"?>
<!-- Generator: Adobe Illustrator 15.0.0, SVG Export Plug-In . SVG Version: 6.00 Build 0)  -->
<!DOCTYPE svg PUBLIC "-//W3C//DTD SVG 1.1//EN" "http://www.w3.org/Graphics/SVG/1.1/DTD/svg11.dtd">
<svg version="1.1" id="Layer_1" xmlns="http://www.w3.org/2000/svg" xmlns:xlink="http://www.w3.org/1999/xlink" x="0px" y="0px"
	 width="70px" height="70px" viewBox="0 0 70 70" enable-background="new 0 0 70 70" xml:space="preserve">
<path fill-rule="evenodd" clip-rule="evenodd" fill="#FFFFFF" d="M35.444,53.138c-4.417,0-7.999-3.581-7.999-7.999
	c0-2.025,0.759-3.869,2-5.278V23.142c0-3.313,2.687-5.999,5.999-5.999c3.313,0,6,2.686,6,5.999V39.86
	c1.24,1.409,1.999,3.253,1.999,5.278C43.443,49.557,39.862,53.138,35.444,53.138z M37.444,41.693v-4.292V27.141v-3.999
	c0-1.104-0.896-2-2-2s-1.999,0.896-1.999,2v3.999v10.261v4.292c-1.19,0.693-2,1.969-2,3.445c0,2.209,1.791,3.999,3.999,3.999
	c2.209,0,4-1.79,4-3.999C39.444,43.662,38.635,42.387,37.444,41.693z M35.444,48.139c-1.656,0-2.999-1.344-2.999-3s1.343-3,2.999-3
	c1.657,0,3,1.344,3,3S37.102,48.139,35.444,48.139z"/>
</svg>
