<?xml version="1.0" encoding="utf-8"?>
<!-- Generator: Adobe Illustrator 15.0.0, SVG Export Plug-In . SVG Version: 6.00 Build 0)  -->
<!DOCTYPE svg PUBLIC "-//W3C//DTD SVG 1.1//EN" "http://www.w3.org/Graphics/SVG/1.1/DTD/svg11.dtd">
<svg version="1.1" id="Layer_1" xmlns="http://www.w3.org/2000/svg" xmlns:xlink="http://www.w3.org/1999/xlink" x="0px" y="0px"
	 width="70px" height="70px" viewBox="0 0 70 70" enable-background="new 0 0 70 70" xml:space="preserve">
<path fill-rule="evenodd" clip-rule="evenodd" fill="#FFFFFF" d="M57.441,43.14h-3.999c-1.104,0-2-0.896-2-2s0.896-2,2-2h3.999
	c1.105,0,2,0.896,2,2S58.547,43.14,57.441,43.14z M49.585,29.827c-0.781,0.781-2.048,0.781-2.828,0s-0.78-2.047,0-2.828l2.828-2.828
	c0.78-0.78,2.047-0.78,2.828,0c0.78,0.781,0.78,2.047,0,2.828L49.585,29.827z M46.746,45.139h-4.381
	c0.682-1.177,1.078-2.54,1.078-3.999c0-4.418-3.581-7.999-7.999-7.999c-4.417,0-7.999,3.581-7.999,7.999
	c0,1.459,0.396,2.822,1.079,3.999h-4.381c-0.444-1.252-0.698-2.595-0.698-3.999c0-6.627,5.373-11.998,11.999-11.998
	c6.627,0,11.999,5.371,11.999,11.998C47.443,42.544,47.189,43.887,46.746,45.139z M35.444,25.142c-1.104,0-1.999-0.896-1.999-2
	v-3.999c0-1.104,0.895-2,1.999-2s2,0.896,2,2v3.999C37.444,24.246,36.549,25.142,35.444,25.142z M21.305,29.827l-2.828-2.828
	c-0.781-0.781-0.781-2.047,0-2.828c0.78-0.78,2.047-0.78,2.828,0l2.828,2.828c0.78,0.781,0.78,2.047,0,2.828
	C23.352,30.608,22.085,30.608,21.305,29.827z M19.446,41.14c0,1.104-0.896,2-1.999,2h-4c-1.104,0-2-0.896-2-2s0.896-2,2-2h4
	C18.551,39.14,19.446,40.035,19.446,41.14z M25.445,49.139h19.998c1.104,0,2,0.896,2,2s-0.896,1.999-2,1.999H25.445
	c-1.104,0-2-0.895-2-1.999S24.342,49.139,25.445,49.139z"/>
</svg>
