<?xml version="1.0" encoding="utf-8"?>
<!-- Generator: Adobe Illustrator 15.0.0, SVG Export Plug-In . SVG Version: 6.00 Build 0)  -->
<!DOCTYPE svg PUBLIC "-//W3C//DTD SVG 1.1//EN" "http://www.w3.org/Graphics/SVG/1.1/DTD/svg11.dtd">
<svg version="1.1" id="Layer_1" xmlns="http://www.w3.org/2000/svg" xmlns:xlink="http://www.w3.org/1999/xlink" x="0px" y="0px"
	 width="70px" height="70px" viewBox="0 0 70 70" enable-background="new 0 0 70 70" xml:space="preserve">
<path fill-rule="evenodd" clip-rule="evenodd" fill="#FFFFFF" d="M49.585,33.827c-0.781,0.78-2.049,0.78-2.828,0
	c-0.781-0.781-0.781-2.048,0-2.828l2.828-2.828c0.779-0.781,2.047-0.781,2.828,0c0.779,0.78,0.779,2.047,0,2.828L49.585,33.827z
	 M42.364,41.14c-1.385-2.389-3.961-4-6.92-4s-5.537,1.611-6.92,4h-4.381c1.648-4.657,6.078-7.999,11.301-7.999
	c5.221,0,9.652,3.342,11.301,7.999H42.364z M35.444,29.142c-1.105,0-2-0.896-2-2v-4c0-1.104,0.895-1.999,2-1.999
	c1.104,0,2,0.895,2,1.999v4C37.444,28.246,36.548,29.142,35.444,29.142z M21.304,33.827l-2.828-2.828
	c-0.781-0.781-0.781-2.048,0-2.828c0.781-0.781,2.047-0.781,2.828,0l2.828,2.828c0.781,0.78,0.781,2.047,0,2.828
	C23.351,34.607,22.085,34.607,21.304,33.827z M25.444,45.139h19.998c1.105,0,2,0.896,2,2s-0.895,2-2,2H25.444c-1.104,0-2-0.896-2-2
	S24.341,45.139,25.444,45.139z"/>
</svg>
