<?xml version="1.0" encoding="utf-8"?>
<!-- Generator: Adobe Illustrator 15.0.0, SVG Export Plug-In . SVG Version: 6.00 Build 0)  -->
<!DOCTYPE svg PUBLIC "-//W3C//DTD SVG 1.1//EN" "http://www.w3.org/Graphics/SVG/1.1/DTD/svg11.dtd">
<svg version="1.1" id="Layer_1" xmlns="http://www.w3.org/2000/svg" xmlns:xlink="http://www.w3.org/1999/xlink" x="0px" y="0px"
	 width="70px" height="70px" viewBox="0 0 70 70" enable-background="new 0 0 70 70" xml:space="preserve">
<path fill-rule="evenodd" clip-rule="evenodd" fill="#FFFFFF" d="M35.444,53.137c-4.418,0-7.998-3.581-7.998-7.999
	c0-2.025,0.758-3.869,2-5.278V23.141c0-3.313,2.686-5.999,5.998-5.999c3.314,0,6,2.686,6,5.999v16.719c1.24,1.409,2,3.253,2,5.278
	C43.444,49.556,39.862,53.137,35.444,53.137z M37.444,41.692V37.4V27.14v-3.999c0-1.104-0.895-2-2-2c-1.104,0-2,0.896-2,2v3.999
	V37.4v4.292c-1.189,0.693-1.998,1.969-1.998,3.445c0,2.209,1.789,3.999,3.998,3.999s4-1.79,4-3.999
	C39.444,43.661,38.636,42.386,37.444,41.692z M35.444,48.138c-1.656,0-2.998-1.344-2.998-3c0-1.305,0.836-2.402,1.998-2.816v-5.183
	h2v5.183c1.162,0.414,2,1.512,2,2.816C38.444,46.794,37.101,48.138,35.444,48.138z"/>
<path fill-rule="evenodd" clip-rule="evenodd" fill="#FFFFFF" d="M51.443,37.14L51.443,37.14h-3c-1.105,0-2-0.895-2-1.999
	s0.895-2,2-2h3c1.104,0,2-0.896,2-1.999c0-1.105-0.896-2-2-2c-1.105,0-2-0.896-2-2s0.895-2,2-2c0.137,0,0.271,0.014,0.402,0.041
	c3.121,0.211,5.596,2.783,5.596,5.959C57.441,34.454,54.756,37.14,51.443,37.14z M41.443,33.141h-2h-6.998H19.447
	c-1.104,0-1.999,0.896-1.999,2s0.895,1.999,1.999,1.999h2h3.999h3h4h2.999h3.999h2c3.314,0,6,2.687,6,6
	c0,3.176-2.475,5.748-5.596,5.959c-0.131,0.026-0.266,0.04-0.404,0.04c-1.104,0-2-0.896-2-1.999c0-1.105,0.896-2,2-2
	c1.105,0,2-0.896,2-2s-0.895-2-2-2h-2h-3.999h-2.999h-4h-3h-3.999h-2c-3.313,0-5.999-2.686-5.999-5.999
	c0-3.175,2.475-5.747,5.596-5.959c0.131-0.026,0.266-0.04,0.403-0.04l0,0h12.999h6.998h2c1.105,0,2-0.896,2-2s-0.895-2-2-2
	c-1.104,0-2-0.895-2-2c0-1.104,0.896-2,2-2c0.139,0,0.273,0.015,0.404,0.041c3.121,0.211,5.596,2.783,5.596,5.959
	C47.443,30.454,44.758,33.141,41.443,33.141z"/>
</svg>
