<?xml version="1.0" encoding="utf-8"?>
<!-- Generator: Adobe Illustrator 15.0.0, SVG Export Plug-In . SVG Version: 6.00 Build 0)  -->
<!DOCTYPE svg PUBLIC "-//W3C//DTD SVG 1.1//EN" "http://www.w3.org/Graphics/SVG/1.1/DTD/svg11.dtd">
<svg version="1.1" id="Layer_1" xmlns="http://www.w3.org/2000/svg" xmlns:xlink="http://www.w3.org/1999/xlink" x="0px" y="0px"
	 width="70px" height="70px" viewBox="0 0 70 70" enable-background="new 0 0 70 70" xml:space="preserve">
<path fill-rule="evenodd" clip-rule="evenodd" fill="#FFFFFF" d="M35.444,53.137c-4.418,0-7.998-3.581-7.998-7.999
	c0-2.025,0.758-3.869,2-5.278V23.141c0-3.313,2.686-5.999,5.998-5.999c3.314,0,6,2.686,6,5.999v16.719c1.24,1.409,2,3.253,2,5.278
	C43.444,49.556,39.862,53.137,35.444,53.137z M37.444,41.692V37.4V27.14v-3.999c0-1.104-0.895-2-2-2c-1.104,0-2,0.896-2,2v3.999
	V37.4v4.292c-1.189,0.693-1.998,1.969-1.998,3.445c0,2.209,1.789,3.999,3.998,3.999s4-1.79,4-3.999
	C39.444,43.661,38.636,42.386,37.444,41.692z M35.444,48.138c-1.656,0-2.998-1.344-2.998-3c0-1.305,0.836-2.402,1.998-2.816v-5.183
	h2v5.183c1.162,0.414,2,1.512,2,2.816C38.444,46.794,37.101,48.138,35.444,48.138z"/>
<path fill-rule="evenodd" clip-rule="evenodd" fill="#FFFFFF" d="M35.444,49.139c-7.732,0-13.998-6.268-13.998-13.999
	c0-7.73,6.266-13.998,13.998-13.998c7.73,0,13.998,6.268,13.998,13.998C49.442,42.871,43.175,49.139,35.444,49.139z M35.444,25.142
	c-5.523,0-10,4.477-10,9.998c0,5.522,4.477,9.999,10,9.999c5.521,0,9.998-4.477,9.998-9.999
	C45.442,29.618,40.966,25.142,35.444,25.142z M38.563,37.61c-0.096,0.139-0.193,0.259-0.291,0.357
	c-0.1,0.099-0.221,0.196-0.359,0.293c-0.428,0.34-0.906,0.579-1.41,0.718c-2.6,1.062-6.715,1.817-6.715,1.817
	s0.754-4.114,1.816-6.715c0.139-0.505,0.379-0.982,0.719-1.411c0.096-0.139,0.193-0.26,0.293-0.358
	c0.098-0.099,0.219-0.196,0.357-0.292c0.43-0.34,0.906-0.58,1.412-0.719c2.6-1.062,6.715-1.817,6.715-1.817
	s-0.756,4.115-1.818,6.716C39.144,36.704,38.903,37.181,38.563,37.61z M36.151,34.433c-0.391-0.391-1.023-0.391-1.414,0
	s-0.391,1.023,0,1.414s1.023,0.391,1.414,0S36.542,34.823,36.151,34.433z"/>
</svg>
